G04 EAGLE Gerber RS-274X export*
G75*
%MOMM*%
%FSLAX34Y34*%
%LPD*%
%INBottom Copper*%
%IPPOS*%
%AMOC8*
5,1,8,0,0,1.08239X$1,22.5*%
G01*
%ADD10C,1.981200*%
%ADD11C,4.318000*%
%ADD12C,1.422400*%
%ADD13R,1.508000X1.508000*%
%ADD14C,1.016000*%
%ADD15C,0.756400*%

G36*
X563904Y29010D02*
X563904Y29010D01*
X563968Y29009D01*
X564043Y29030D01*
X564119Y29041D01*
X564178Y29067D01*
X564240Y29084D01*
X564306Y29125D01*
X564376Y29157D01*
X564425Y29199D01*
X564480Y29232D01*
X564532Y29290D01*
X564590Y29340D01*
X564626Y29394D01*
X564669Y29442D01*
X564702Y29511D01*
X564745Y29576D01*
X564764Y29638D01*
X564792Y29695D01*
X564803Y29765D01*
X564827Y29846D01*
X564828Y29931D01*
X564839Y30000D01*
X564839Y33313D01*
X566554Y39712D01*
X569866Y45449D01*
X574551Y50134D01*
X580288Y53446D01*
X586687Y55161D01*
X590000Y55161D01*
X590064Y55170D01*
X590128Y55169D01*
X590203Y55190D01*
X590279Y55201D01*
X590338Y55227D01*
X590400Y55244D01*
X590466Y55285D01*
X590536Y55317D01*
X590585Y55359D01*
X590640Y55392D01*
X590692Y55450D01*
X590750Y55500D01*
X590786Y55554D01*
X590829Y55602D01*
X590862Y55671D01*
X590905Y55736D01*
X590924Y55798D01*
X590952Y55855D01*
X590963Y55925D01*
X590987Y56006D01*
X590988Y56091D01*
X590999Y56160D01*
X590999Y743840D01*
X590990Y743904D01*
X590991Y743968D01*
X590970Y744043D01*
X590959Y744119D01*
X590933Y744178D01*
X590916Y744240D01*
X590875Y744306D01*
X590843Y744376D01*
X590801Y744425D01*
X590768Y744480D01*
X590710Y744532D01*
X590660Y744590D01*
X590606Y744626D01*
X590558Y744669D01*
X590489Y744702D01*
X590424Y744745D01*
X590362Y744764D01*
X590305Y744792D01*
X590235Y744803D01*
X590154Y744827D01*
X590069Y744828D01*
X590000Y744839D01*
X586687Y744839D01*
X580288Y746554D01*
X574551Y749866D01*
X569866Y754551D01*
X566554Y760288D01*
X564839Y766687D01*
X564839Y770000D01*
X564830Y770064D01*
X564831Y770128D01*
X564810Y770203D01*
X564799Y770279D01*
X564773Y770338D01*
X564756Y770400D01*
X564715Y770466D01*
X564683Y770536D01*
X564641Y770585D01*
X564608Y770640D01*
X564550Y770692D01*
X564500Y770750D01*
X564446Y770786D01*
X564398Y770829D01*
X564329Y770862D01*
X564264Y770905D01*
X564202Y770924D01*
X564145Y770952D01*
X564075Y770963D01*
X563994Y770987D01*
X563909Y770988D01*
X563840Y770999D01*
X56160Y770999D01*
X56096Y770990D01*
X56032Y770991D01*
X55957Y770970D01*
X55881Y770959D01*
X55822Y770933D01*
X55760Y770916D01*
X55694Y770875D01*
X55624Y770843D01*
X55575Y770801D01*
X55520Y770768D01*
X55468Y770710D01*
X55410Y770660D01*
X55374Y770606D01*
X55331Y770558D01*
X55298Y770489D01*
X55255Y770424D01*
X55236Y770362D01*
X55208Y770305D01*
X55197Y770235D01*
X55173Y770154D01*
X55172Y770069D01*
X55161Y770000D01*
X55161Y766687D01*
X53446Y760288D01*
X50134Y754551D01*
X45449Y749866D01*
X39712Y746554D01*
X33313Y744839D01*
X30000Y744839D01*
X29936Y744830D01*
X29872Y744831D01*
X29797Y744810D01*
X29721Y744799D01*
X29662Y744773D01*
X29600Y744756D01*
X29534Y744715D01*
X29464Y744683D01*
X29415Y744641D01*
X29360Y744608D01*
X29308Y744550D01*
X29250Y744500D01*
X29214Y744446D01*
X29171Y744398D01*
X29138Y744329D01*
X29095Y744264D01*
X29076Y744202D01*
X29048Y744145D01*
X29037Y744075D01*
X29013Y743994D01*
X29012Y743909D01*
X29001Y743840D01*
X29001Y56160D01*
X29010Y56096D01*
X29009Y56032D01*
X29030Y55957D01*
X29041Y55881D01*
X29067Y55822D01*
X29084Y55760D01*
X29125Y55694D01*
X29157Y55624D01*
X29199Y55575D01*
X29232Y55520D01*
X29290Y55468D01*
X29340Y55410D01*
X29394Y55374D01*
X29442Y55331D01*
X29511Y55298D01*
X29576Y55255D01*
X29638Y55236D01*
X29695Y55208D01*
X29765Y55197D01*
X29846Y55173D01*
X29931Y55172D01*
X30000Y55161D01*
X33313Y55161D01*
X39712Y53446D01*
X45449Y50134D01*
X50134Y45449D01*
X53446Y39712D01*
X55161Y33313D01*
X55161Y30000D01*
X55170Y29936D01*
X55169Y29872D01*
X55190Y29797D01*
X55201Y29721D01*
X55227Y29662D01*
X55244Y29600D01*
X55285Y29534D01*
X55317Y29464D01*
X55359Y29415D01*
X55392Y29360D01*
X55450Y29308D01*
X55500Y29250D01*
X55554Y29214D01*
X55602Y29171D01*
X55671Y29138D01*
X55736Y29095D01*
X55798Y29076D01*
X55855Y29048D01*
X55925Y29037D01*
X56006Y29013D01*
X56091Y29012D01*
X56160Y29001D01*
X563840Y29001D01*
X563904Y29010D01*
G37*
%LPC*%
G36*
X165984Y204879D02*
X165984Y204879D01*
X163183Y206039D01*
X52580Y316643D01*
X52503Y316700D01*
X52432Y316765D01*
X52391Y316785D01*
X52354Y316812D01*
X52264Y316846D01*
X52178Y316888D01*
X52136Y316894D01*
X52091Y316911D01*
X51963Y316921D01*
X51873Y316935D01*
X48880Y316935D01*
X45332Y318405D01*
X42617Y321120D01*
X41147Y324668D01*
X41147Y342732D01*
X42617Y346280D01*
X45332Y348995D01*
X48880Y350465D01*
X52720Y350465D01*
X56268Y348995D01*
X58983Y346280D01*
X60453Y342732D01*
X60453Y330739D01*
X60461Y330678D01*
X60461Y330646D01*
X60467Y330623D01*
X60471Y330547D01*
X60486Y330504D01*
X60493Y330459D01*
X60532Y330372D01*
X60564Y330281D01*
X60589Y330247D01*
X60609Y330202D01*
X60692Y330105D01*
X60745Y330032D01*
X64841Y325936D01*
X64867Y325917D01*
X64888Y325892D01*
X64980Y325832D01*
X65067Y325767D01*
X65097Y325755D01*
X65124Y325738D01*
X65229Y325706D01*
X65331Y325667D01*
X65363Y325665D01*
X65394Y325655D01*
X65503Y325654D01*
X65612Y325645D01*
X65644Y325652D01*
X65676Y325651D01*
X65781Y325681D01*
X65888Y325703D01*
X65917Y325718D01*
X65948Y325727D01*
X66041Y325784D01*
X66137Y325835D01*
X66160Y325858D01*
X66188Y325875D01*
X66261Y325956D01*
X66339Y326032D01*
X66355Y326060D01*
X66377Y326084D01*
X66424Y326182D01*
X66478Y326277D01*
X66486Y326309D01*
X66500Y326338D01*
X66514Y326427D01*
X66543Y326552D01*
X66541Y326600D01*
X66547Y326642D01*
X66547Y342732D01*
X68017Y346280D01*
X70732Y348995D01*
X74280Y350465D01*
X78120Y350465D01*
X81668Y348995D01*
X84383Y346280D01*
X85853Y342732D01*
X85853Y324668D01*
X84383Y321120D01*
X81668Y318405D01*
X78120Y316935D01*
X76254Y316935D01*
X76223Y316931D01*
X76190Y316933D01*
X76083Y316911D01*
X75975Y316895D01*
X75946Y316882D01*
X75914Y316876D01*
X75818Y316824D01*
X75718Y316779D01*
X75694Y316758D01*
X75665Y316743D01*
X75587Y316667D01*
X75504Y316596D01*
X75486Y316569D01*
X75463Y316546D01*
X75409Y316451D01*
X75350Y316360D01*
X75340Y316329D01*
X75324Y316301D01*
X75299Y316194D01*
X75267Y316090D01*
X75267Y316058D01*
X75259Y316027D01*
X75265Y315917D01*
X75263Y315808D01*
X75272Y315777D01*
X75274Y315745D01*
X75309Y315642D01*
X75339Y315536D01*
X75356Y315509D01*
X75366Y315478D01*
X75419Y315405D01*
X75487Y315296D01*
X75523Y315264D01*
X75548Y315229D01*
X117025Y273753D01*
X117120Y273681D01*
X117211Y273606D01*
X117232Y273597D01*
X117250Y273583D01*
X117361Y273541D01*
X117470Y273495D01*
X117493Y273492D01*
X117514Y273484D01*
X117632Y273475D01*
X117750Y273460D01*
X117773Y273464D01*
X117795Y273462D01*
X117911Y273486D01*
X118029Y273505D01*
X118049Y273515D01*
X118071Y273520D01*
X118176Y273575D01*
X118283Y273626D01*
X118300Y273641D01*
X118320Y273652D01*
X118405Y273735D01*
X118494Y273814D01*
X118505Y273832D01*
X118523Y273849D01*
X118614Y274011D01*
X118655Y274077D01*
X119789Y276817D01*
X121933Y278961D01*
X124734Y280121D01*
X127766Y280121D01*
X130567Y278961D01*
X174114Y235413D01*
X174191Y235356D01*
X174262Y235291D01*
X174303Y235271D01*
X174340Y235244D01*
X174430Y235210D01*
X174516Y235168D01*
X174558Y235162D01*
X174603Y235145D01*
X174731Y235135D01*
X174821Y235121D01*
X209190Y235121D01*
X209221Y235125D01*
X209254Y235123D01*
X209361Y235145D01*
X209469Y235161D01*
X209498Y235174D01*
X209530Y235180D01*
X209626Y235232D01*
X209726Y235277D01*
X209750Y235298D01*
X209779Y235313D01*
X209857Y235389D01*
X209940Y235460D01*
X209958Y235487D01*
X209981Y235510D01*
X210035Y235605D01*
X210094Y235696D01*
X210104Y235727D01*
X210120Y235755D01*
X210145Y235862D01*
X210177Y235966D01*
X210177Y235998D01*
X210185Y236029D01*
X210179Y236139D01*
X210181Y236248D01*
X210172Y236279D01*
X210170Y236311D01*
X210135Y236414D01*
X210105Y236520D01*
X210088Y236547D01*
X210078Y236578D01*
X210025Y236651D01*
X209957Y236760D01*
X209921Y236792D01*
X209896Y236827D01*
X89636Y357087D01*
X89559Y357144D01*
X89488Y357209D01*
X89447Y357229D01*
X89410Y357256D01*
X89320Y357290D01*
X89234Y357332D01*
X89192Y357338D01*
X89147Y357355D01*
X89019Y357365D01*
X88929Y357379D01*
X68484Y357379D01*
X65683Y358539D01*
X53947Y370276D01*
X53939Y370281D01*
X53933Y370289D01*
X53826Y370366D01*
X53721Y370445D01*
X53712Y370448D01*
X53705Y370454D01*
X53581Y370498D01*
X53457Y370545D01*
X53448Y370545D01*
X53439Y370548D01*
X53308Y370556D01*
X53176Y370566D01*
X53167Y370564D01*
X53157Y370565D01*
X53082Y370547D01*
X52900Y370509D01*
X52879Y370497D01*
X52858Y370492D01*
X52720Y370435D01*
X48880Y370435D01*
X45332Y371905D01*
X42617Y374620D01*
X41147Y378168D01*
X41147Y396232D01*
X42617Y399780D01*
X45332Y402495D01*
X48880Y403965D01*
X52720Y403965D01*
X56268Y402495D01*
X58983Y399780D01*
X60453Y396232D01*
X60453Y385739D01*
X60466Y385644D01*
X60467Y385633D01*
X60466Y385605D01*
X60469Y385597D01*
X60471Y385547D01*
X60486Y385504D01*
X60493Y385459D01*
X60529Y385378D01*
X60542Y385333D01*
X60550Y385319D01*
X60564Y385281D01*
X60589Y385247D01*
X60609Y385202D01*
X60658Y385145D01*
X60690Y385093D01*
X60721Y385065D01*
X60745Y385032D01*
X64841Y380936D01*
X64867Y380917D01*
X64888Y380892D01*
X64980Y380832D01*
X65067Y380767D01*
X65097Y380755D01*
X65124Y380738D01*
X65229Y380706D01*
X65331Y380667D01*
X65363Y380665D01*
X65394Y380655D01*
X65503Y380654D01*
X65612Y380645D01*
X65644Y380652D01*
X65676Y380651D01*
X65781Y380681D01*
X65888Y380703D01*
X65917Y380718D01*
X65948Y380727D01*
X66041Y380784D01*
X66137Y380835D01*
X66160Y380858D01*
X66188Y380875D01*
X66261Y380956D01*
X66339Y381032D01*
X66355Y381060D01*
X66377Y381084D01*
X66424Y381182D01*
X66478Y381277D01*
X66486Y381309D01*
X66500Y381338D01*
X66514Y381427D01*
X66543Y381552D01*
X66541Y381600D01*
X66547Y381642D01*
X66547Y396232D01*
X68017Y399780D01*
X70732Y402495D01*
X74280Y403965D01*
X78120Y403965D01*
X81668Y402495D01*
X84383Y399780D01*
X85853Y396232D01*
X85853Y378168D01*
X84383Y374620D01*
X84090Y374327D01*
X84070Y374301D01*
X84046Y374280D01*
X83986Y374188D01*
X83920Y374101D01*
X83909Y374071D01*
X83891Y374044D01*
X83859Y373939D01*
X83821Y373837D01*
X83818Y373805D01*
X83809Y373774D01*
X83807Y373665D01*
X83799Y373556D01*
X83806Y373524D01*
X83805Y373492D01*
X83834Y373387D01*
X83857Y373280D01*
X83872Y373251D01*
X83880Y373220D01*
X83938Y373127D01*
X83989Y373031D01*
X84011Y373008D01*
X84028Y372980D01*
X84110Y372907D01*
X84186Y372829D01*
X84214Y372813D01*
X84238Y372791D01*
X84336Y372744D01*
X84431Y372690D01*
X84462Y372682D01*
X84492Y372668D01*
X84581Y372654D01*
X84706Y372625D01*
X84754Y372627D01*
X84796Y372621D01*
X85770Y372621D01*
X85852Y372632D01*
X85936Y372635D01*
X85991Y372652D01*
X86049Y372661D01*
X86125Y372695D01*
X86204Y372720D01*
X86253Y372753D01*
X86306Y372777D01*
X86369Y372831D01*
X86438Y372877D01*
X86476Y372922D01*
X86520Y372960D01*
X86566Y373030D01*
X86619Y373094D01*
X86640Y373144D01*
X86675Y373196D01*
X86704Y373291D01*
X86995Y373684D01*
X87068Y373819D01*
X87115Y373897D01*
X87289Y374317D01*
X87910Y374938D01*
X87959Y375002D01*
X88007Y375049D01*
X88529Y375755D01*
X88919Y375989D01*
X89038Y376086D01*
X89112Y376139D01*
X199433Y486461D01*
X202234Y487621D01*
X205266Y487621D01*
X208067Y486461D01*
X210211Y484317D01*
X211371Y481516D01*
X211371Y478484D01*
X210211Y475683D01*
X102109Y367582D01*
X102070Y367530D01*
X102024Y367485D01*
X101986Y367418D01*
X101940Y367356D01*
X101917Y367296D01*
X101885Y367240D01*
X101867Y367165D01*
X101840Y367092D01*
X101835Y367028D01*
X101820Y366966D01*
X101824Y366888D01*
X101818Y366811D01*
X101831Y366748D01*
X101835Y366684D01*
X101860Y366611D01*
X101876Y366535D01*
X101906Y366478D01*
X101927Y366417D01*
X101969Y366361D01*
X102008Y366286D01*
X102068Y366225D01*
X102109Y366168D01*
X222711Y245567D01*
X223871Y242766D01*
X223871Y239734D01*
X222711Y236933D01*
X222604Y236827D01*
X222585Y236801D01*
X222560Y236780D01*
X222500Y236688D01*
X222435Y236601D01*
X222423Y236571D01*
X222406Y236544D01*
X222374Y236440D01*
X222335Y236337D01*
X222333Y236305D01*
X222323Y236274D01*
X222322Y236165D01*
X222313Y236056D01*
X222320Y236024D01*
X222319Y235992D01*
X222349Y235887D01*
X222371Y235780D01*
X222386Y235751D01*
X222395Y235720D01*
X222452Y235627D01*
X222503Y235531D01*
X222526Y235508D01*
X222543Y235480D01*
X222624Y235407D01*
X222700Y235329D01*
X222728Y235313D01*
X222752Y235291D01*
X222850Y235244D01*
X222945Y235190D01*
X222977Y235182D01*
X223006Y235168D01*
X223095Y235154D01*
X223220Y235125D01*
X223268Y235127D01*
X223310Y235121D01*
X299362Y235121D01*
X299442Y235132D01*
X299509Y235132D01*
X300378Y235261D01*
X300819Y235151D01*
X300972Y235135D01*
X301061Y235121D01*
X301516Y235121D01*
X302014Y234914D01*
X302024Y234912D01*
X302032Y234907D01*
X302058Y234901D01*
X302073Y234894D01*
X302118Y234887D01*
X302160Y234877D01*
X302288Y234844D01*
X302297Y234844D01*
X302306Y234842D01*
X302386Y234846D01*
X302405Y234846D01*
X302416Y234848D01*
X302439Y234849D01*
X302570Y234853D01*
X302578Y234856D01*
X302588Y234857D01*
X302665Y234883D01*
X302684Y234886D01*
X302720Y234902D01*
X302838Y234941D01*
X302846Y234946D01*
X302854Y234949D01*
X302905Y234986D01*
X302941Y235002D01*
X302992Y235046D01*
X303071Y235099D01*
X303086Y235118D01*
X303103Y235131D01*
X388747Y320775D01*
X388819Y320870D01*
X388894Y320961D01*
X388903Y320982D01*
X388917Y321000D01*
X388959Y321111D01*
X389005Y321220D01*
X389008Y321243D01*
X389016Y321264D01*
X389025Y321382D01*
X389040Y321500D01*
X389036Y321523D01*
X389038Y321545D01*
X389014Y321661D01*
X388995Y321779D01*
X388985Y321799D01*
X388980Y321821D01*
X388925Y321926D01*
X388874Y322033D01*
X388859Y322050D01*
X388848Y322070D01*
X388765Y322155D01*
X388686Y322244D01*
X388668Y322255D01*
X388651Y322273D01*
X388489Y322365D01*
X388423Y322405D01*
X385683Y323539D01*
X383539Y325683D01*
X382379Y328484D01*
X382379Y362630D01*
X382370Y362694D01*
X382371Y362758D01*
X382350Y362833D01*
X382339Y362909D01*
X382313Y362968D01*
X382296Y363030D01*
X382255Y363096D01*
X382223Y363166D01*
X382181Y363215D01*
X382148Y363270D01*
X382090Y363322D01*
X382040Y363380D01*
X381986Y363416D01*
X381938Y363459D01*
X381869Y363492D01*
X381804Y363535D01*
X381742Y363554D01*
X381685Y363582D01*
X381615Y363593D01*
X381534Y363617D01*
X381449Y363618D01*
X381380Y363629D01*
X208484Y363629D01*
X205683Y364789D01*
X203539Y366933D01*
X202379Y369734D01*
X202379Y372766D01*
X203539Y375567D01*
X205683Y377711D01*
X208484Y378871D01*
X398930Y378871D01*
X399024Y378884D01*
X399121Y378889D01*
X399164Y378904D01*
X399209Y378911D01*
X399296Y378950D01*
X399387Y378982D01*
X399422Y379007D01*
X399466Y379027D01*
X399563Y379110D01*
X399636Y379163D01*
X493155Y472682D01*
X493212Y472759D01*
X493277Y472830D01*
X493297Y472871D01*
X493324Y472907D01*
X493358Y472998D01*
X493400Y473084D01*
X493406Y473126D01*
X493423Y473171D01*
X493433Y473299D01*
X493447Y473388D01*
X493447Y480532D01*
X494917Y484080D01*
X497632Y486795D01*
X501180Y488265D01*
X505020Y488265D01*
X508568Y486795D01*
X511283Y484080D01*
X512753Y480532D01*
X512753Y462468D01*
X511283Y458920D01*
X508568Y456205D01*
X505020Y454735D01*
X501180Y454735D01*
X498673Y455774D01*
X498664Y455776D01*
X498656Y455781D01*
X498527Y455811D01*
X498400Y455844D01*
X498391Y455843D01*
X498381Y455846D01*
X498249Y455839D01*
X498118Y455835D01*
X498109Y455832D01*
X498100Y455831D01*
X497975Y455788D01*
X497850Y455747D01*
X497842Y455742D01*
X497833Y455739D01*
X497771Y455693D01*
X497617Y455588D01*
X497602Y455570D01*
X497584Y455557D01*
X409101Y367074D01*
X406817Y364789D01*
X404016Y363629D01*
X398620Y363629D01*
X398556Y363620D01*
X398492Y363621D01*
X398417Y363600D01*
X398341Y363589D01*
X398282Y363563D01*
X398220Y363546D01*
X398154Y363505D01*
X398084Y363473D01*
X398035Y363431D01*
X397980Y363398D01*
X397928Y363340D01*
X397870Y363290D01*
X397834Y363236D01*
X397791Y363188D01*
X397758Y363119D01*
X397715Y363054D01*
X397696Y362992D01*
X397668Y362935D01*
X397657Y362865D01*
X397633Y362784D01*
X397632Y362699D01*
X397621Y362630D01*
X397621Y332060D01*
X397625Y332029D01*
X397623Y331996D01*
X397645Y331889D01*
X397661Y331781D01*
X397674Y331752D01*
X397680Y331720D01*
X397732Y331624D01*
X397777Y331524D01*
X397798Y331500D01*
X397813Y331471D01*
X397889Y331393D01*
X397960Y331310D01*
X397987Y331292D01*
X398010Y331269D01*
X398105Y331215D01*
X398196Y331156D01*
X398227Y331146D01*
X398255Y331130D01*
X398362Y331105D01*
X398466Y331073D01*
X398498Y331073D01*
X398529Y331065D01*
X398639Y331071D01*
X398748Y331069D01*
X398779Y331078D01*
X398811Y331080D01*
X398914Y331115D01*
X399020Y331145D01*
X399047Y331162D01*
X399078Y331172D01*
X399151Y331225D01*
X399260Y331293D01*
X399292Y331329D01*
X399327Y331354D01*
X492149Y424176D01*
X493155Y425182D01*
X493212Y425259D01*
X493277Y425330D01*
X493297Y425371D01*
X493324Y425408D01*
X493358Y425498D01*
X493400Y425584D01*
X493406Y425626D01*
X493423Y425671D01*
X493433Y425799D01*
X493447Y425889D01*
X493447Y429732D01*
X494917Y433280D01*
X497632Y435995D01*
X501180Y437465D01*
X505020Y437465D01*
X508568Y435995D01*
X511283Y433280D01*
X512753Y429732D01*
X512753Y411668D01*
X511283Y408120D01*
X508568Y405405D01*
X505020Y403935D01*
X501180Y403935D01*
X497632Y405405D01*
X496989Y406048D01*
X496937Y406087D01*
X496892Y406133D01*
X496825Y406171D01*
X496763Y406218D01*
X496703Y406240D01*
X496647Y406272D01*
X496572Y406290D01*
X496499Y406317D01*
X496435Y406322D01*
X496373Y406337D01*
X496295Y406333D01*
X496218Y406339D01*
X496155Y406326D01*
X496091Y406322D01*
X496018Y406297D01*
X495942Y406281D01*
X495885Y406251D01*
X495825Y406230D01*
X495768Y406189D01*
X495693Y406149D01*
X495632Y406090D01*
X495576Y406048D01*
X311354Y221827D01*
X311335Y221801D01*
X311310Y221780D01*
X311250Y221688D01*
X311185Y221601D01*
X311173Y221571D01*
X311156Y221544D01*
X311124Y221439D01*
X311085Y221337D01*
X311083Y221305D01*
X311073Y221274D01*
X311072Y221165D01*
X311063Y221056D01*
X311070Y221024D01*
X311069Y220992D01*
X311099Y220887D01*
X311121Y220780D01*
X311136Y220751D01*
X311145Y220720D01*
X311202Y220627D01*
X311253Y220531D01*
X311276Y220508D01*
X311293Y220480D01*
X311374Y220407D01*
X311450Y220329D01*
X311478Y220313D01*
X311502Y220291D01*
X311600Y220244D01*
X311695Y220190D01*
X311727Y220182D01*
X311756Y220168D01*
X311845Y220154D01*
X311970Y220125D01*
X312018Y220127D01*
X312060Y220121D01*
X331429Y220121D01*
X331524Y220134D01*
X331621Y220139D01*
X331664Y220154D01*
X331709Y220161D01*
X331796Y220200D01*
X331887Y220232D01*
X331921Y220257D01*
X331966Y220277D01*
X332063Y220360D01*
X332136Y220413D01*
X344433Y232711D01*
X347234Y233871D01*
X350266Y233871D01*
X353067Y232711D01*
X355211Y230567D01*
X356371Y227766D01*
X356371Y224734D01*
X355211Y221933D01*
X339317Y206039D01*
X336516Y204879D01*
X165984Y204879D01*
G37*
%LPD*%
%LPC*%
G36*
X48880Y423935D02*
X48880Y423935D01*
X45332Y425405D01*
X42617Y428120D01*
X41147Y431668D01*
X41147Y449732D01*
X42617Y453280D01*
X43337Y454000D01*
X43348Y454015D01*
X43356Y454021D01*
X43373Y454048D01*
X43394Y454076D01*
X43459Y454148D01*
X43479Y454189D01*
X43506Y454225D01*
X43540Y454315D01*
X43582Y454402D01*
X43588Y454444D01*
X43605Y454489D01*
X43615Y454617D01*
X43629Y454706D01*
X43629Y502766D01*
X44789Y505567D01*
X46933Y507711D01*
X49734Y508871D01*
X284115Y508871D01*
X284146Y508875D01*
X284179Y508873D01*
X284286Y508895D01*
X284394Y508911D01*
X284423Y508924D01*
X284455Y508930D01*
X284551Y508982D01*
X284651Y509027D01*
X284675Y509048D01*
X284704Y509063D01*
X284782Y509139D01*
X284865Y509210D01*
X284883Y509237D01*
X284906Y509260D01*
X284960Y509355D01*
X285019Y509446D01*
X285029Y509477D01*
X285045Y509505D01*
X285070Y509611D01*
X285102Y509716D01*
X285102Y509748D01*
X285110Y509779D01*
X285104Y509889D01*
X285106Y509998D01*
X285097Y510029D01*
X285095Y510061D01*
X285060Y510164D01*
X285030Y510270D01*
X285013Y510297D01*
X285003Y510328D01*
X284950Y510401D01*
X284882Y510510D01*
X284846Y510542D01*
X284821Y510577D01*
X283348Y512049D01*
X281453Y516624D01*
X281453Y521576D01*
X283348Y526151D01*
X286849Y529652D01*
X291424Y531547D01*
X295355Y531547D01*
X295450Y531560D01*
X295547Y531565D01*
X295590Y531580D01*
X295635Y531587D01*
X295722Y531626D01*
X295813Y531658D01*
X295847Y531683D01*
X295892Y531703D01*
X295989Y531786D01*
X296062Y531839D01*
X354433Y590211D01*
X357234Y591371D01*
X436516Y591371D01*
X439317Y590211D01*
X441461Y588067D01*
X442621Y585266D01*
X442621Y582234D01*
X441461Y579433D01*
X441354Y579327D01*
X441335Y579301D01*
X441310Y579280D01*
X441250Y579188D01*
X441185Y579101D01*
X441173Y579071D01*
X441156Y579044D01*
X441124Y578940D01*
X441085Y578837D01*
X441083Y578805D01*
X441073Y578774D01*
X441072Y578665D01*
X441063Y578556D01*
X441070Y578524D01*
X441069Y578492D01*
X441099Y578387D01*
X441121Y578280D01*
X441136Y578251D01*
X441145Y578220D01*
X441202Y578127D01*
X441253Y578031D01*
X441276Y578008D01*
X441293Y577980D01*
X441374Y577907D01*
X441450Y577829D01*
X441478Y577813D01*
X441502Y577791D01*
X441600Y577744D01*
X441695Y577690D01*
X441727Y577682D01*
X441756Y577668D01*
X441845Y577654D01*
X441970Y577625D01*
X442018Y577627D01*
X442060Y577621D01*
X456516Y577621D01*
X459317Y576461D01*
X497549Y538228D01*
X497556Y538223D01*
X497562Y538215D01*
X497670Y538138D01*
X497775Y538059D01*
X497783Y538056D01*
X497791Y538050D01*
X497915Y538006D01*
X498038Y537960D01*
X498048Y537959D01*
X498057Y537956D01*
X498188Y537948D01*
X498320Y537938D01*
X498329Y537940D01*
X498338Y537939D01*
X498414Y537957D01*
X498596Y537995D01*
X498617Y538007D01*
X498638Y538012D01*
X501180Y539065D01*
X505020Y539065D01*
X508568Y537595D01*
X511283Y534880D01*
X512753Y531332D01*
X512753Y513268D01*
X511283Y509720D01*
X508568Y507005D01*
X505020Y505535D01*
X501180Y505535D01*
X497632Y507005D01*
X494917Y509720D01*
X493447Y513268D01*
X493447Y520361D01*
X493434Y520456D01*
X493429Y520553D01*
X493414Y520596D01*
X493407Y520641D01*
X493368Y520728D01*
X493336Y520819D01*
X493311Y520853D01*
X493291Y520898D01*
X493208Y520995D01*
X493155Y521068D01*
X452136Y562087D01*
X452059Y562144D01*
X451988Y562209D01*
X451947Y562229D01*
X451910Y562256D01*
X451820Y562290D01*
X451734Y562332D01*
X451692Y562338D01*
X451647Y562355D01*
X451519Y562365D01*
X451429Y562379D01*
X370984Y562379D01*
X368183Y563539D01*
X366039Y565683D01*
X364879Y568484D01*
X364879Y571516D01*
X366039Y574317D01*
X366146Y574423D01*
X366165Y574449D01*
X366190Y574470D01*
X366250Y574562D01*
X366315Y574649D01*
X366327Y574679D01*
X366344Y574706D01*
X366376Y574810D01*
X366415Y574913D01*
X366417Y574945D01*
X366427Y574976D01*
X366428Y575085D01*
X366437Y575194D01*
X366430Y575226D01*
X366431Y575258D01*
X366401Y575363D01*
X366379Y575470D01*
X366364Y575499D01*
X366355Y575530D01*
X366298Y575623D01*
X366247Y575719D01*
X366224Y575742D01*
X366207Y575770D01*
X366126Y575843D01*
X366050Y575921D01*
X366022Y575937D01*
X365998Y575959D01*
X365900Y576006D01*
X365805Y576060D01*
X365773Y576068D01*
X365744Y576082D01*
X365655Y576096D01*
X365530Y576125D01*
X365482Y576123D01*
X365440Y576129D01*
X362321Y576129D01*
X362226Y576116D01*
X362129Y576111D01*
X362086Y576096D01*
X362041Y576089D01*
X361954Y576050D01*
X361863Y576018D01*
X361829Y575993D01*
X361784Y575973D01*
X361687Y575890D01*
X361614Y575837D01*
X306639Y520862D01*
X306582Y520785D01*
X306517Y520714D01*
X306497Y520673D01*
X306470Y520636D01*
X306436Y520546D01*
X306394Y520460D01*
X306388Y520418D01*
X306371Y520373D01*
X306361Y520245D01*
X306347Y520155D01*
X306347Y516624D01*
X304452Y512049D01*
X302979Y510577D01*
X302960Y510551D01*
X302935Y510530D01*
X302875Y510438D01*
X302810Y510351D01*
X302798Y510321D01*
X302781Y510294D01*
X302749Y510189D01*
X302710Y510087D01*
X302708Y510055D01*
X302698Y510024D01*
X302697Y509915D01*
X302688Y509806D01*
X302695Y509774D01*
X302694Y509742D01*
X302724Y509637D01*
X302746Y509530D01*
X302761Y509501D01*
X302770Y509470D01*
X302827Y509377D01*
X302878Y509281D01*
X302901Y509258D01*
X302918Y509230D01*
X302999Y509157D01*
X303075Y509079D01*
X303103Y509063D01*
X303127Y509041D01*
X303225Y508994D01*
X303320Y508940D01*
X303352Y508932D01*
X303381Y508918D01*
X303470Y508904D01*
X303595Y508875D01*
X303643Y508877D01*
X303685Y508871D01*
X373929Y508871D01*
X374024Y508884D01*
X374121Y508889D01*
X374164Y508904D01*
X374209Y508911D01*
X374296Y508950D01*
X374387Y508982D01*
X374421Y509007D01*
X374466Y509027D01*
X374563Y509110D01*
X374636Y509163D01*
X382761Y517288D01*
X382818Y517365D01*
X382883Y517436D01*
X382903Y517477D01*
X382930Y517514D01*
X382964Y517604D01*
X383006Y517690D01*
X383012Y517732D01*
X383029Y517777D01*
X383039Y517905D01*
X383053Y517995D01*
X383053Y521576D01*
X384948Y526151D01*
X388449Y529652D01*
X393024Y531547D01*
X397976Y531547D01*
X402551Y529652D01*
X406052Y526151D01*
X407947Y521576D01*
X407947Y516624D01*
X406052Y512049D01*
X402551Y508548D01*
X397976Y506653D01*
X394095Y506653D01*
X394000Y506640D01*
X393903Y506635D01*
X393860Y506620D01*
X393815Y506613D01*
X393728Y506574D01*
X393637Y506542D01*
X393603Y506517D01*
X393558Y506497D01*
X393461Y506414D01*
X393388Y506361D01*
X381817Y494789D01*
X379016Y493629D01*
X59870Y493629D01*
X59806Y493620D01*
X59742Y493621D01*
X59667Y493600D01*
X59591Y493589D01*
X59532Y493563D01*
X59470Y493546D01*
X59404Y493505D01*
X59334Y493473D01*
X59285Y493431D01*
X59230Y493398D01*
X59178Y493340D01*
X59120Y493290D01*
X59084Y493236D01*
X59041Y493188D01*
X59008Y493119D01*
X58965Y493054D01*
X58946Y492992D01*
X58918Y492935D01*
X58907Y492865D01*
X58883Y492784D01*
X58882Y492699D01*
X58871Y492630D01*
X58871Y453750D01*
X58877Y453709D01*
X58874Y453667D01*
X58894Y453583D01*
X58911Y453471D01*
X58935Y453417D01*
X58947Y453368D01*
X60453Y449732D01*
X60453Y431668D01*
X58983Y428120D01*
X56268Y425405D01*
X52720Y423935D01*
X48880Y423935D01*
G37*
%LPD*%
%LPC*%
G36*
X132200Y659769D02*
X132200Y659769D01*
X123331Y663443D01*
X116543Y670231D01*
X112869Y679100D01*
X112869Y688700D01*
X116543Y697569D01*
X123331Y704357D01*
X132200Y708031D01*
X141800Y708031D01*
X150669Y704357D01*
X157457Y697569D01*
X161131Y688700D01*
X161131Y679100D01*
X157457Y670231D01*
X150669Y663443D01*
X141800Y659769D01*
X132200Y659769D01*
G37*
%LPD*%
%LPC*%
G36*
X102200Y612769D02*
X102200Y612769D01*
X93331Y616443D01*
X86543Y623231D01*
X82869Y632100D01*
X82869Y641700D01*
X86543Y650569D01*
X93331Y657357D01*
X102200Y661031D01*
X111800Y661031D01*
X120669Y657357D01*
X127457Y650569D01*
X131131Y641700D01*
X131131Y632100D01*
X127457Y623231D01*
X120669Y616443D01*
X111800Y612769D01*
X102200Y612769D01*
G37*
%LPD*%
%LPC*%
G36*
X501180Y556335D02*
X501180Y556335D01*
X497632Y557805D01*
X494917Y560520D01*
X493447Y564068D01*
X493447Y582132D01*
X494917Y585680D01*
X497632Y588395D01*
X501180Y589865D01*
X505020Y589865D01*
X508568Y588395D01*
X511283Y585680D01*
X512753Y582132D01*
X512753Y564068D01*
X511283Y560520D01*
X508568Y557805D01*
X505020Y556335D01*
X501180Y556335D01*
G37*
%LPD*%
%LPC*%
G36*
X74280Y423935D02*
X74280Y423935D01*
X70732Y425405D01*
X68017Y428120D01*
X66547Y431668D01*
X66547Y449732D01*
X68017Y453280D01*
X70732Y455995D01*
X74280Y457465D01*
X78120Y457465D01*
X81668Y455995D01*
X84383Y453280D01*
X85853Y449732D01*
X85853Y431668D01*
X84383Y428120D01*
X81668Y425405D01*
X78120Y423935D01*
X74280Y423935D01*
G37*
%LPD*%
%LPC*%
G36*
X67208Y519519D02*
X67208Y519519D01*
X65719Y521008D01*
X65719Y538192D01*
X67208Y539681D01*
X84392Y539681D01*
X85881Y538192D01*
X85881Y521008D01*
X84392Y519519D01*
X67208Y519519D01*
G37*
%LPD*%
%LPC*%
G36*
X42208Y519519D02*
X42208Y519519D01*
X40719Y521008D01*
X40719Y538192D01*
X42208Y539681D01*
X59392Y539681D01*
X60881Y538192D01*
X60881Y521008D01*
X59392Y519519D01*
X42208Y519519D01*
G37*
%LPD*%
%LPC*%
G36*
X92208Y519519D02*
X92208Y519519D01*
X90719Y521008D01*
X90719Y538192D01*
X92208Y539681D01*
X109392Y539681D01*
X110881Y538192D01*
X110881Y521008D01*
X109392Y519519D01*
X92208Y519519D01*
G37*
%LPD*%
%LPC*%
G36*
X78999Y685899D02*
X78999Y685899D01*
X78999Y707958D01*
X81049Y707727D01*
X83691Y707124D01*
X86249Y706229D01*
X88691Y705053D01*
X90986Y703611D01*
X93105Y701921D01*
X95021Y700005D01*
X96711Y697886D01*
X98153Y695591D01*
X99329Y693149D01*
X100224Y690591D01*
X100827Y687949D01*
X101058Y685899D01*
X78999Y685899D01*
G37*
%LPD*%
%LPC*%
G36*
X52942Y685899D02*
X52942Y685899D01*
X53173Y687949D01*
X53776Y690591D01*
X54671Y693149D01*
X55847Y695591D01*
X57289Y697886D01*
X58979Y700005D01*
X60895Y701921D01*
X63014Y703611D01*
X65309Y705053D01*
X67751Y706229D01*
X70309Y707124D01*
X72951Y707727D01*
X75001Y707958D01*
X75001Y685899D01*
X52942Y685899D01*
G37*
%LPD*%
%LPC*%
G36*
X78999Y681901D02*
X78999Y681901D01*
X101058Y681901D01*
X100827Y679851D01*
X100224Y677209D01*
X99329Y674651D01*
X98153Y672209D01*
X96711Y669914D01*
X95021Y667795D01*
X93105Y665879D01*
X90986Y664189D01*
X88691Y662747D01*
X86249Y661571D01*
X83691Y660676D01*
X81049Y660073D01*
X78999Y659842D01*
X78999Y681901D01*
G37*
%LPD*%
%LPC*%
G36*
X72951Y660073D02*
X72951Y660073D01*
X70309Y660676D01*
X67751Y661571D01*
X65309Y662747D01*
X63014Y664189D01*
X60895Y665879D01*
X58979Y667795D01*
X57289Y669914D01*
X55847Y672209D01*
X54671Y674651D01*
X53776Y677209D01*
X53173Y679851D01*
X52942Y681901D01*
X75001Y681901D01*
X75001Y659842D01*
X72951Y660073D01*
G37*
%LPD*%
%LPC*%
G36*
X530499Y575099D02*
X530499Y575099D01*
X530499Y589668D01*
X530760Y589627D01*
X532205Y589158D01*
X533559Y588468D01*
X534788Y587575D01*
X535863Y586500D01*
X536756Y585271D01*
X537446Y583917D01*
X537915Y582472D01*
X538153Y580972D01*
X538153Y575099D01*
X530499Y575099D01*
G37*
%LPD*%
%LPC*%
G36*
X530499Y524299D02*
X530499Y524299D01*
X530499Y538868D01*
X530760Y538827D01*
X532205Y538358D01*
X533559Y537668D01*
X534788Y536775D01*
X535863Y535700D01*
X536756Y534471D01*
X537446Y533117D01*
X537915Y531672D01*
X538153Y530172D01*
X538153Y524299D01*
X530499Y524299D01*
G37*
%LPD*%
%LPC*%
G36*
X530499Y473499D02*
X530499Y473499D01*
X530499Y488068D01*
X530760Y488027D01*
X532205Y487558D01*
X533559Y486868D01*
X534788Y485975D01*
X535863Y484900D01*
X536756Y483671D01*
X537446Y482317D01*
X537915Y480872D01*
X538153Y479372D01*
X538153Y473499D01*
X530499Y473499D01*
G37*
%LPD*%
%LPC*%
G36*
X530499Y422699D02*
X530499Y422699D01*
X530499Y437268D01*
X530760Y437227D01*
X532205Y436758D01*
X533559Y436068D01*
X534788Y435175D01*
X535863Y434100D01*
X536756Y432871D01*
X537446Y431517D01*
X537915Y430072D01*
X538153Y428572D01*
X538153Y422699D01*
X530499Y422699D01*
G37*
%LPD*%
%LPC*%
G36*
X530499Y571101D02*
X530499Y571101D01*
X538153Y571101D01*
X538153Y565228D01*
X538077Y564753D01*
X537919Y563754D01*
X537915Y563728D01*
X537446Y562283D01*
X536756Y560929D01*
X535863Y559700D01*
X534788Y558625D01*
X533559Y557732D01*
X532205Y557042D01*
X530760Y556573D01*
X530499Y556532D01*
X530499Y571101D01*
G37*
%LPD*%
%LPC*%
G36*
X530499Y520301D02*
X530499Y520301D01*
X538153Y520301D01*
X538153Y514428D01*
X537915Y512928D01*
X537446Y511483D01*
X536756Y510129D01*
X535863Y508900D01*
X534788Y507825D01*
X533559Y506932D01*
X532205Y506242D01*
X530760Y505773D01*
X530499Y505732D01*
X530499Y520301D01*
G37*
%LPD*%
%LPC*%
G36*
X530499Y469501D02*
X530499Y469501D01*
X538153Y469501D01*
X538153Y463628D01*
X537915Y462128D01*
X537446Y460683D01*
X536756Y459329D01*
X535863Y458100D01*
X534788Y457025D01*
X533559Y456132D01*
X532205Y455442D01*
X530760Y454973D01*
X530499Y454932D01*
X530499Y469501D01*
G37*
%LPD*%
%LPC*%
G36*
X530499Y418701D02*
X530499Y418701D01*
X538153Y418701D01*
X538153Y412828D01*
X538001Y411868D01*
X537915Y411328D01*
X537446Y409883D01*
X536756Y408529D01*
X535863Y407300D01*
X534788Y406225D01*
X533559Y405332D01*
X532205Y404642D01*
X530760Y404173D01*
X530499Y404132D01*
X530499Y418701D01*
G37*
%LPD*%
%LPC*%
G36*
X518847Y524299D02*
X518847Y524299D01*
X518847Y530172D01*
X518894Y530470D01*
X518895Y530470D01*
X519085Y531672D01*
X519554Y533117D01*
X520244Y534471D01*
X521137Y535700D01*
X522212Y536775D01*
X523441Y537668D01*
X524795Y538358D01*
X526240Y538827D01*
X526501Y538868D01*
X526501Y524299D01*
X518847Y524299D01*
G37*
%LPD*%
%LPC*%
G36*
X518847Y473499D02*
X518847Y473499D01*
X518847Y479372D01*
X518869Y479508D01*
X518869Y479509D01*
X519085Y480872D01*
X519554Y482317D01*
X520244Y483671D01*
X521137Y484900D01*
X522212Y485975D01*
X523441Y486868D01*
X524795Y487558D01*
X526240Y488027D01*
X526501Y488068D01*
X526501Y473499D01*
X518847Y473499D01*
G37*
%LPD*%
%LPC*%
G36*
X518847Y422699D02*
X518847Y422699D01*
X518847Y428572D01*
X519085Y430072D01*
X519554Y431517D01*
X520244Y432871D01*
X521137Y434100D01*
X522212Y435175D01*
X523441Y436068D01*
X524795Y436758D01*
X526240Y437227D01*
X526501Y437268D01*
X526501Y422699D01*
X518847Y422699D01*
G37*
%LPD*%
%LPC*%
G36*
X518847Y575099D02*
X518847Y575099D01*
X518847Y580972D01*
X519078Y582431D01*
X519085Y582472D01*
X519554Y583917D01*
X520244Y585271D01*
X521137Y586500D01*
X522212Y587575D01*
X523441Y588468D01*
X524795Y589158D01*
X526240Y589627D01*
X526501Y589668D01*
X526501Y575099D01*
X518847Y575099D01*
G37*
%LPD*%
%LPC*%
G36*
X526240Y505773D02*
X526240Y505773D01*
X524795Y506242D01*
X523441Y506932D01*
X522212Y507825D01*
X521137Y508900D01*
X520244Y510129D01*
X519554Y511483D01*
X519085Y512928D01*
X518847Y514428D01*
X518847Y520301D01*
X526501Y520301D01*
X526501Y505732D01*
X526240Y505773D01*
G37*
%LPD*%
%LPC*%
G36*
X526240Y556573D02*
X526240Y556573D01*
X524795Y557042D01*
X523441Y557732D01*
X522212Y558625D01*
X521137Y559700D01*
X520244Y560929D01*
X519554Y562283D01*
X519085Y563728D01*
X518847Y565228D01*
X518847Y571101D01*
X526501Y571101D01*
X526501Y556532D01*
X526240Y556573D01*
G37*
%LPD*%
%LPC*%
G36*
X526240Y454973D02*
X526240Y454973D01*
X524795Y455442D01*
X523441Y456132D01*
X522212Y457025D01*
X521137Y458100D01*
X520244Y459329D01*
X519554Y460683D01*
X519085Y462128D01*
X518847Y463628D01*
X518847Y469501D01*
X526501Y469501D01*
X526501Y454932D01*
X526240Y454973D01*
G37*
%LPD*%
%LPC*%
G36*
X526240Y404173D02*
X526240Y404173D01*
X524795Y404642D01*
X523441Y405332D01*
X522212Y406225D01*
X521137Y407300D01*
X520244Y408529D01*
X519554Y409883D01*
X519085Y411328D01*
X518847Y412828D01*
X518847Y418701D01*
X526501Y418701D01*
X526501Y404132D01*
X526240Y404173D01*
G37*
%LPD*%
%LPC*%
G36*
X76999Y683899D02*
X76999Y683899D01*
X76999Y683901D01*
X77001Y683901D01*
X77001Y683899D01*
X76999Y683899D01*
G37*
%LPD*%
%LPC*%
G36*
X528499Y573099D02*
X528499Y573099D01*
X528499Y573101D01*
X528501Y573101D01*
X528501Y573099D01*
X528499Y573099D01*
G37*
%LPD*%
%LPC*%
G36*
X528499Y522299D02*
X528499Y522299D01*
X528499Y522301D01*
X528501Y522301D01*
X528501Y522299D01*
X528499Y522299D01*
G37*
%LPD*%
%LPC*%
G36*
X528499Y471499D02*
X528499Y471499D01*
X528499Y471501D01*
X528501Y471501D01*
X528501Y471499D01*
X528499Y471499D01*
G37*
%LPD*%
%LPC*%
G36*
X528499Y420699D02*
X528499Y420699D01*
X528499Y420701D01*
X528501Y420701D01*
X528501Y420699D01*
X528499Y420699D01*
G37*
%LPD*%
D10*
X395500Y519100D03*
X293900Y519100D03*
D11*
X137000Y683900D03*
X77000Y683900D03*
X107000Y636900D03*
D12*
X76200Y447812D02*
X76200Y433588D01*
X50800Y433588D02*
X50800Y447812D01*
X76200Y394312D02*
X76200Y380088D01*
X50800Y380088D02*
X50800Y394312D01*
X76200Y340812D02*
X76200Y326588D01*
X50800Y326588D02*
X50800Y340812D01*
X528500Y565988D02*
X528500Y580212D01*
X503100Y580212D02*
X503100Y565988D01*
X528500Y529412D02*
X528500Y515188D01*
X503100Y515188D02*
X503100Y529412D01*
X528500Y478612D02*
X528500Y464388D01*
X503100Y464388D02*
X503100Y478612D01*
X528500Y427812D02*
X528500Y413588D01*
X503100Y413588D02*
X503100Y427812D01*
D13*
X50800Y529600D03*
X75800Y529600D03*
X100800Y529600D03*
D14*
X51250Y501250D02*
X51250Y441250D01*
X51250Y501250D02*
X377500Y501250D01*
X395000Y518750D01*
X51250Y441250D02*
X50800Y440700D01*
X395000Y518750D02*
X395500Y519100D01*
X216250Y241250D02*
X92500Y365000D01*
X70000Y365000D01*
X51250Y383750D01*
X51250Y386250D01*
X50800Y387200D01*
X93750Y370000D02*
X203750Y480000D01*
X93750Y370000D02*
X92500Y365000D01*
D15*
X216250Y241250D03*
X203750Y480000D03*
D14*
X348750Y226250D02*
X335000Y212500D01*
X167500Y212500D01*
X51250Y328750D01*
X51250Y332500D01*
X50800Y333700D01*
D15*
X348750Y226250D03*
D14*
X502500Y522500D02*
X455000Y570000D01*
X372500Y570000D01*
X502500Y522500D02*
X503100Y522300D01*
D15*
X372500Y570000D03*
D14*
X502500Y471250D02*
X402500Y371250D01*
X390000Y371250D02*
X210000Y371250D01*
X390000Y371250D02*
X402500Y371250D01*
X502500Y471250D02*
X503100Y471500D01*
X390000Y371250D02*
X390000Y330000D01*
D15*
X210000Y371250D03*
X390000Y330000D03*
D14*
X305000Y226250D02*
X498750Y420000D01*
X502500Y420000D01*
X503100Y420700D01*
X171250Y227500D02*
X126250Y272500D01*
X171250Y227500D02*
X300000Y227500D01*
X305000Y226250D01*
D15*
X305000Y226250D03*
X126250Y272500D03*
D14*
X295000Y520000D02*
X358750Y583750D01*
X435000Y583750D01*
X295000Y520000D02*
X293900Y519100D01*
D15*
X435000Y583750D03*
M02*
