M48
;GenerationSoftware,Autodesk,EAGLE,9.6.2*%
;CreationDate,2020-09-11T02:32:28Z*%
FMAT,2
ICI,OFF
METRIC,TZ,000.000
T5C0.350
T4C0.914
T3C1.000
T2C2.997
T1C3.000
%
G90
M71
T1
X3000Y77000
X59000Y77000
X59000Y3000
X3000Y3000
T2
X10700Y63690
X13700Y68390
X7700Y68390
T3
X10080Y52960
X5080Y52960
X7580Y52960
X39550Y51910
X29390Y51910
T4
X7620Y38720
X5080Y38720
X7620Y33370
X5080Y33370
X52850Y57310
X50310Y57310
X52850Y52230
X50310Y52230
X52850Y47150
X50310Y47150
X52850Y42070
X50310Y42070
X7620Y44070
X5080Y44070
T5
X20375Y48000
X34875Y22625
X37250Y57000
X21000Y37125
X39000Y33000
X30500Y22625
X12625Y27250
X43500Y58375
X21625Y24125
M30