G04 EAGLE Gerber RS-274X export*
G75*
%MOMM*%
%FSLAX34Y34*%
%LPD*%
%IN*%
%IPPOS*%
%AMOC8*
5,1,8,0,0,1.08239X$1,22.5*%
G01*
%ADD10C,0.254000*%


D10*
X0Y0D02*
X621100Y0D01*
X621100Y800000D01*
X0Y800000D01*
X0Y0D01*
X45000Y769464D02*
X44924Y768396D01*
X44771Y767335D01*
X44543Y766288D01*
X44241Y765260D01*
X43867Y764256D01*
X43422Y763281D01*
X42908Y762341D01*
X42329Y761440D01*
X41687Y760582D01*
X40985Y759772D01*
X40228Y759015D01*
X39418Y758313D01*
X38560Y757671D01*
X37659Y757092D01*
X36719Y756578D01*
X35744Y756133D01*
X34740Y755759D01*
X33712Y755457D01*
X32665Y755229D01*
X31604Y755076D01*
X30536Y755000D01*
X29464Y755000D01*
X28396Y755076D01*
X27335Y755229D01*
X26288Y755457D01*
X25260Y755759D01*
X24256Y756133D01*
X23281Y756578D01*
X22341Y757092D01*
X21440Y757671D01*
X20582Y758313D01*
X19772Y759015D01*
X19015Y759772D01*
X18313Y760582D01*
X17671Y761440D01*
X17092Y762341D01*
X16578Y763281D01*
X16133Y764256D01*
X15759Y765260D01*
X15457Y766288D01*
X15229Y767335D01*
X15076Y768396D01*
X15000Y769464D01*
X15000Y770536D01*
X15076Y771604D01*
X15229Y772665D01*
X15457Y773712D01*
X15759Y774740D01*
X16133Y775744D01*
X16578Y776719D01*
X17092Y777659D01*
X17671Y778560D01*
X18313Y779418D01*
X19015Y780228D01*
X19772Y780985D01*
X20582Y781687D01*
X21440Y782329D01*
X22341Y782908D01*
X23281Y783422D01*
X24256Y783867D01*
X25260Y784241D01*
X26288Y784543D01*
X27335Y784771D01*
X28396Y784924D01*
X29464Y785000D01*
X30536Y785000D01*
X31604Y784924D01*
X32665Y784771D01*
X33712Y784543D01*
X34740Y784241D01*
X35744Y783867D01*
X36719Y783422D01*
X37659Y782908D01*
X38560Y782329D01*
X39418Y781687D01*
X40228Y780985D01*
X40985Y780228D01*
X41687Y779418D01*
X42329Y778560D01*
X42908Y777659D01*
X43422Y776719D01*
X43867Y775744D01*
X44241Y774740D01*
X44543Y773712D01*
X44771Y772665D01*
X44924Y771604D01*
X45000Y770536D01*
X45000Y769464D01*
X605000Y769464D02*
X604924Y768396D01*
X604771Y767335D01*
X604543Y766288D01*
X604241Y765260D01*
X603867Y764256D01*
X603422Y763281D01*
X602908Y762341D01*
X602329Y761440D01*
X601687Y760582D01*
X600985Y759772D01*
X600228Y759015D01*
X599418Y758313D01*
X598560Y757671D01*
X597659Y757092D01*
X596719Y756578D01*
X595744Y756133D01*
X594740Y755759D01*
X593712Y755457D01*
X592665Y755229D01*
X591604Y755076D01*
X590536Y755000D01*
X589464Y755000D01*
X588396Y755076D01*
X587335Y755229D01*
X586288Y755457D01*
X585260Y755759D01*
X584256Y756133D01*
X583281Y756578D01*
X582341Y757092D01*
X581440Y757671D01*
X580582Y758313D01*
X579772Y759015D01*
X579015Y759772D01*
X578313Y760582D01*
X577671Y761440D01*
X577092Y762341D01*
X576578Y763281D01*
X576133Y764256D01*
X575759Y765260D01*
X575457Y766288D01*
X575229Y767335D01*
X575076Y768396D01*
X575000Y769464D01*
X575000Y770536D01*
X575076Y771604D01*
X575229Y772665D01*
X575457Y773712D01*
X575759Y774740D01*
X576133Y775744D01*
X576578Y776719D01*
X577092Y777659D01*
X577671Y778560D01*
X578313Y779418D01*
X579015Y780228D01*
X579772Y780985D01*
X580582Y781687D01*
X581440Y782329D01*
X582341Y782908D01*
X583281Y783422D01*
X584256Y783867D01*
X585260Y784241D01*
X586288Y784543D01*
X587335Y784771D01*
X588396Y784924D01*
X589464Y785000D01*
X590536Y785000D01*
X591604Y784924D01*
X592665Y784771D01*
X593712Y784543D01*
X594740Y784241D01*
X595744Y783867D01*
X596719Y783422D01*
X597659Y782908D01*
X598560Y782329D01*
X599418Y781687D01*
X600228Y780985D01*
X600985Y780228D01*
X601687Y779418D01*
X602329Y778560D01*
X602908Y777659D01*
X603422Y776719D01*
X603867Y775744D01*
X604241Y774740D01*
X604543Y773712D01*
X604771Y772665D01*
X604924Y771604D01*
X605000Y770536D01*
X605000Y769464D01*
X605000Y29464D02*
X604924Y28396D01*
X604771Y27335D01*
X604543Y26288D01*
X604241Y25260D01*
X603867Y24256D01*
X603422Y23281D01*
X602908Y22341D01*
X602329Y21440D01*
X601687Y20582D01*
X600985Y19772D01*
X600228Y19015D01*
X599418Y18313D01*
X598560Y17671D01*
X597659Y17092D01*
X596719Y16578D01*
X595744Y16133D01*
X594740Y15759D01*
X593712Y15457D01*
X592665Y15229D01*
X591604Y15076D01*
X590536Y15000D01*
X589464Y15000D01*
X588396Y15076D01*
X587335Y15229D01*
X586288Y15457D01*
X585260Y15759D01*
X584256Y16133D01*
X583281Y16578D01*
X582341Y17092D01*
X581440Y17671D01*
X580582Y18313D01*
X579772Y19015D01*
X579015Y19772D01*
X578313Y20582D01*
X577671Y21440D01*
X577092Y22341D01*
X576578Y23281D01*
X576133Y24256D01*
X575759Y25260D01*
X575457Y26288D01*
X575229Y27335D01*
X575076Y28396D01*
X575000Y29464D01*
X575000Y30536D01*
X575076Y31604D01*
X575229Y32665D01*
X575457Y33712D01*
X575759Y34740D01*
X576133Y35744D01*
X576578Y36719D01*
X577092Y37659D01*
X577671Y38560D01*
X578313Y39418D01*
X579015Y40228D01*
X579772Y40985D01*
X580582Y41687D01*
X581440Y42329D01*
X582341Y42908D01*
X583281Y43422D01*
X584256Y43867D01*
X585260Y44241D01*
X586288Y44543D01*
X587335Y44771D01*
X588396Y44924D01*
X589464Y45000D01*
X590536Y45000D01*
X591604Y44924D01*
X592665Y44771D01*
X593712Y44543D01*
X594740Y44241D01*
X595744Y43867D01*
X596719Y43422D01*
X597659Y42908D01*
X598560Y42329D01*
X599418Y41687D01*
X600228Y40985D01*
X600985Y40228D01*
X601687Y39418D01*
X602329Y38560D01*
X602908Y37659D01*
X603422Y36719D01*
X603867Y35744D01*
X604241Y34740D01*
X604543Y33712D01*
X604771Y32665D01*
X604924Y31604D01*
X605000Y30536D01*
X605000Y29464D01*
X45000Y29464D02*
X44924Y28396D01*
X44771Y27335D01*
X44543Y26288D01*
X44241Y25260D01*
X43867Y24256D01*
X43422Y23281D01*
X42908Y22341D01*
X42329Y21440D01*
X41687Y20582D01*
X40985Y19772D01*
X40228Y19015D01*
X39418Y18313D01*
X38560Y17671D01*
X37659Y17092D01*
X36719Y16578D01*
X35744Y16133D01*
X34740Y15759D01*
X33712Y15457D01*
X32665Y15229D01*
X31604Y15076D01*
X30536Y15000D01*
X29464Y15000D01*
X28396Y15076D01*
X27335Y15229D01*
X26288Y15457D01*
X25260Y15759D01*
X24256Y16133D01*
X23281Y16578D01*
X22341Y17092D01*
X21440Y17671D01*
X20582Y18313D01*
X19772Y19015D01*
X19015Y19772D01*
X18313Y20582D01*
X17671Y21440D01*
X17092Y22341D01*
X16578Y23281D01*
X16133Y24256D01*
X15759Y25260D01*
X15457Y26288D01*
X15229Y27335D01*
X15076Y28396D01*
X15000Y29464D01*
X15000Y30536D01*
X15076Y31604D01*
X15229Y32665D01*
X15457Y33712D01*
X15759Y34740D01*
X16133Y35744D01*
X16578Y36719D01*
X17092Y37659D01*
X17671Y38560D01*
X18313Y39418D01*
X19015Y40228D01*
X19772Y40985D01*
X20582Y41687D01*
X21440Y42329D01*
X22341Y42908D01*
X23281Y43422D01*
X24256Y43867D01*
X25260Y44241D01*
X26288Y44543D01*
X27335Y44771D01*
X28396Y44924D01*
X29464Y45000D01*
X30536Y45000D01*
X31604Y44924D01*
X32665Y44771D01*
X33712Y44543D01*
X34740Y44241D01*
X35744Y43867D01*
X36719Y43422D01*
X37659Y42908D01*
X38560Y42329D01*
X39418Y41687D01*
X40228Y40985D01*
X40985Y40228D01*
X41687Y39418D01*
X42329Y38560D01*
X42908Y37659D01*
X43422Y36719D01*
X43867Y35744D01*
X44241Y34740D01*
X44543Y33712D01*
X44771Y32665D01*
X44924Y31604D01*
X45000Y30536D01*
X45000Y29464D01*
M02*
