G04 EAGLE Gerber RS-274X export*
G75*
%MOMM*%
%FSLAX34Y34*%
%LPD*%
%INSoldermask Top*%
%IPPOS*%
%AMOC8*
5,1,8,0,0,1.08239X$1,22.5*%
G01*
%ADD10C,3.203200*%
%ADD11R,1.203200X1.303200*%
%ADD12R,3.203200X1.603200*%
%ADD13C,2.184400*%
%ADD14C,0.505344*%
%ADD15C,4.521200*%
%ADD16R,1.422400X2.438400*%
%ADD17R,3.803200X2.403200*%
%ADD18R,2.403200X0.853200*%
%ADD19C,1.625600*%
%ADD20R,1.203200X3.503200*%
%ADD21R,6.654800X3.454400*%
%ADD22R,1.270000X2.387600*%
%ADD23R,7.203200X8.203200*%
%ADD24R,1.703200X3.403200*%
%ADD25R,1.711200X1.711200*%
%ADD26C,0.959600*%


D10*
X30000Y770000D03*
X590000Y770000D03*
X590000Y30000D03*
X30000Y30000D03*
D11*
X447200Y593000D03*
X447200Y610000D03*
X381000Y593000D03*
X381000Y610000D03*
X314800Y593000D03*
X314800Y610000D03*
D12*
X255300Y718500D03*
X207300Y718500D03*
D13*
X395500Y519100D03*
X293900Y519100D03*
D14*
X188590Y596220D02*
X181610Y596220D01*
X188590Y596220D02*
X188590Y589240D01*
X181610Y589240D01*
X181610Y596220D01*
X181610Y594040D02*
X188590Y594040D01*
X188590Y613760D02*
X181610Y613760D01*
X188590Y613760D02*
X188590Y606780D01*
X181610Y606780D01*
X181610Y613760D01*
X181610Y611580D02*
X188590Y611580D01*
D15*
X137000Y683900D03*
X77000Y683900D03*
X107000Y636900D03*
D11*
X251200Y609800D03*
X251200Y592800D03*
D16*
X434086Y687512D03*
X457200Y687512D03*
X480314Y687512D03*
D17*
X457200Y749490D03*
D16*
X332486Y687512D03*
X355600Y687512D03*
X378714Y687512D03*
D17*
X355600Y749490D03*
D18*
X175200Y517900D03*
X212200Y517900D03*
D19*
X76200Y447812D02*
X76200Y433588D01*
X50800Y433588D02*
X50800Y447812D01*
X76200Y394312D02*
X76200Y380088D01*
X50800Y380088D02*
X50800Y394312D01*
X76200Y340812D02*
X76200Y326588D01*
X50800Y326588D02*
X50800Y340812D01*
X528500Y565988D02*
X528500Y580212D01*
X503100Y580212D02*
X503100Y565988D01*
X528500Y529412D02*
X528500Y515188D01*
X503100Y515188D02*
X503100Y529412D01*
X528500Y478612D02*
X528500Y464388D01*
X503100Y464388D02*
X503100Y478612D01*
X528500Y427812D02*
X528500Y413588D01*
X503100Y413588D02*
X503100Y427812D01*
D20*
X206900Y295900D03*
X206900Y346900D03*
X79600Y221600D03*
X79600Y272600D03*
D21*
X475400Y175500D03*
X475400Y75500D03*
X475400Y343300D03*
X475400Y243300D03*
D20*
X79600Y94600D03*
X79600Y145600D03*
D22*
X284700Y206500D03*
X301700Y206500D03*
X318700Y206500D03*
X335700Y206500D03*
X352700Y206500D03*
D23*
X319700Y86500D03*
D22*
X169000Y206500D03*
X186000Y206500D03*
X203000Y206500D03*
X220000Y206500D03*
X237000Y206500D03*
D23*
X204000Y86500D03*
D24*
X182800Y425800D03*
X228800Y425800D03*
X302500Y425600D03*
X348500Y425600D03*
D25*
X50800Y529600D03*
X75800Y529600D03*
X100800Y529600D03*
D26*
X216250Y241250D03*
X203750Y480000D03*
X348750Y226250D03*
X372500Y570000D03*
X210000Y371250D03*
X390000Y330000D03*
X305000Y226250D03*
X126250Y272500D03*
X435000Y583750D03*
M02*
