G04 EAGLE Gerber RS-274X export*
G75*
%MOMM*%
%FSLAX34Y34*%
%LPD*%
%INSolderpaste Top*%
%IPPOS*%
%AMOC8*
5,1,8,0,0,1.08239X$1,22.5*%
G01*
%ADD10R,1.000000X1.100000*%
%ADD11R,3.000000X1.400000*%
%ADD12C,0.300000*%
%ADD13R,1.219200X2.235200*%
%ADD14R,3.600000X2.200000*%
%ADD15R,2.200000X0.650000*%
%ADD16R,1.000000X3.300000*%
%ADD17R,6.451600X3.251200*%
%ADD18R,1.066800X2.184400*%
%ADD19R,7.000000X8.000000*%
%ADD20R,1.500000X3.200000*%


D10*
X447200Y593000D03*
X447200Y610000D03*
X381000Y593000D03*
X381000Y610000D03*
X314800Y593000D03*
X314800Y610000D03*
D11*
X255300Y718500D03*
X207300Y718500D03*
D12*
X188600Y596230D02*
X181600Y596230D01*
X188600Y596230D02*
X188600Y589230D01*
X181600Y589230D01*
X181600Y596230D01*
X181600Y592080D02*
X188600Y592080D01*
X188600Y594930D02*
X181600Y594930D01*
X181600Y613770D02*
X188600Y613770D01*
X188600Y606770D01*
X181600Y606770D01*
X181600Y613770D01*
X181600Y609620D02*
X188600Y609620D01*
X188600Y612470D02*
X181600Y612470D01*
D10*
X251200Y609800D03*
X251200Y592800D03*
D13*
X434086Y687512D03*
X457200Y687512D03*
X480314Y687512D03*
D14*
X457200Y749490D03*
D13*
X332486Y687512D03*
X355600Y687512D03*
X378714Y687512D03*
D14*
X355600Y749490D03*
D15*
X175200Y517900D03*
X212200Y517900D03*
D16*
X206900Y295900D03*
X206900Y346900D03*
X79600Y221600D03*
X79600Y272600D03*
D17*
X475400Y175500D03*
X475400Y75500D03*
X475400Y343300D03*
X475400Y243300D03*
D16*
X79600Y94600D03*
X79600Y145600D03*
D18*
X284700Y206500D03*
X301700Y206500D03*
X318700Y206500D03*
X335700Y206500D03*
X352700Y206500D03*
D19*
X319700Y86500D03*
D18*
X169000Y206500D03*
X186000Y206500D03*
X203000Y206500D03*
X220000Y206500D03*
X237000Y206500D03*
D19*
X204000Y86500D03*
D20*
X182800Y425800D03*
X228800Y425800D03*
X302500Y425600D03*
X348500Y425600D03*
M02*
